<svg width="89" height="27" viewBox="0 0 89 27" fill="none" xmlns="http://www.w3.org/2000/svg">
<g clip-path="url(#clip0_188_266)">
<path d="M0 24.0887V21.7016H18.3997V24.0887H0ZM16.8142 18.1036H2.00376V7.69275H16.3873V10.0798H4.80902V15.7078H16.8142V18.1123V18.1036Z" fill="white"/>
<path d="M19.7412 17.3717V15.0717H24.4021V13.4164H27.2074V15.0717H30.6748V13.4164H33.48V15.0717H38.141V17.3717H19.7412ZM20.2814 11.9005C24.4196 11.3952 27.8956 9.8532 28.0786 6.92596H30.9623C30.9187 7.80588 30.6661 8.58124 30.2914 9.28692C31.9206 10.768 34.5342 11.4388 37.566 11.7785L36.3114 13.8694C33.6543 13.6603 30.7706 12.702 28.8453 11.0293C26.9025 12.763 23.9317 13.7475 21.4836 14.0175L20.2726 11.9092L20.2814 11.9005ZM35.2747 22.3549C35.2747 24.9511 32.6785 26.6412 29.0195 26.6412C25.3605 26.6412 22.7643 24.9511 22.7643 22.3549C22.7643 19.7587 25.3605 18.0686 29.0195 18.0686C32.6785 18.0686 35.2747 19.7587 35.2747 22.3549ZM32.4694 22.3549C32.4694 21.1439 31.2759 20.325 29.0195 20.325C26.7631 20.325 25.5695 21.1439 25.5695 22.3549C25.5695 23.5659 26.7631 24.3848 29.0195 24.3848C31.2759 24.3848 32.4694 23.5659 32.4694 22.3549Z" fill="white"/>
<path d="M40.3105 22.1633V7.69271H50.4513V22.1633H40.3105ZM43.1158 19.7763H47.6548V10.0711H43.1158V19.7763ZM52.8384 25.6743V6.94348H55.6437V13.1987H58.3008V15.6206H55.6437V25.6743H52.8384Z" fill="white"/>
<path d="M59.2153 17.3717V15.0717H63.8763V13.4164H66.6815V15.0717H70.1489V13.4164H72.9542V15.0717H77.6151V17.3717H59.2153ZM59.7555 11.9005C63.8937 11.3952 67.3698 9.8532 67.5527 6.92596H70.4364C70.3928 7.80588 70.1402 8.58124 69.7656 9.28692C71.3947 10.768 74.0083 11.4388 77.0401 11.7785L75.7856 13.8694C73.1284 13.6603 70.2447 12.702 68.3194 11.0293C66.3766 12.763 63.4058 13.7475 60.9577 14.0175L59.7468 11.9092L59.7555 11.9005ZM74.7488 22.3549C74.7488 24.9511 72.1527 26.6412 68.4936 26.6412C64.8346 26.6412 62.2384 24.9511 62.2384 22.3549C62.2384 19.7587 64.8346 18.0686 68.4936 18.0686C72.1527 18.0686 74.7488 19.7587 74.7488 22.3549ZM71.9436 22.3549C71.9436 21.1439 70.75 20.325 68.4936 20.325C66.2372 20.325 65.0437 21.1439 65.0437 22.3549C65.0437 23.5659 66.2372 24.3848 68.4936 24.3848C70.75 24.3848 71.9436 23.5659 71.9436 22.3549Z" fill="white"/>
<path d="M75.2197 9.44384C73.6515 9.88815 71.1512 7.18743 70.4455 6.91736C66.9869 11.1253 75.7337 11.587 76.997 11.8571L82.3461 21.1005L80.3075 25.1864L88.401 19.8373L84.106 20.3251C83.3132 19.1751 80.6386 14.4184 78.1121 9.99269C77.3977 8.73817 77.0231 9.10407 75.908 9.2696" fill="white"/>
<path d="M76.1953 9.21726C76.1953 9.21726 76.84 9.19984 77.9377 8.4419C78.7305 7.89304 79.3316 7.56198 79.7498 7.46615C80.1157 7.37903 80.4816 7.69266 80.4293 8.06728C80.3596 8.54644 79.8892 9.69642 78.321 10.7854" fill="white"/>
<path d="M70.8198 6.7518L81.4136 0L80.0458 7.07414L79.7758 2.14315L70.8198 6.7518Z" fill="white"/>
</g>
<defs>
<clipPath id="clip0_188_266">
<rect width="88.4007" height="26.6413" fill="white"/>
</clipPath>
</defs>
</svg>
