<svg width="24" height="24" viewBox="0 0 24 24" fill="none" xmlns="http://www.w3.org/2000/svg">
<g clip-path="url(#clip0_90_353)">
<path d="M19.5423 20.577L13.2616 14.296C12.7616 14.7088 12.1866 15.0319 11.5366 15.2653C10.8866 15.4986 10.2141 15.6153 9.5193 15.6153C7.81164 15.6153 6.36547 15.023 5.1808 13.8385C3.9963 12.6538 3.40405 11.2077 3.40405 9.5C3.40405 7.79233 3.9963 6.34617 5.1808 5.1615C6.36547 3.977 7.81164 3.38475 9.5193 3.38475C11.227 3.38475 12.6731 3.977 13.8578 5.1615C15.0423 6.34617 15.6346 7.79233 15.6346 9.5C15.6346 10.2142 15.5147 10.8963 15.2751 11.5463C15.0352 12.1963 14.7153 12.7616 14.3153 13.2423L20.5961 19.523L19.5423 20.577ZM9.5193 14.1155C10.8078 14.1155 11.8991 13.6683 12.7933 12.774C13.6876 11.8798 14.1348 10.7885 14.1348 9.5C14.1348 8.2115 13.6876 7.12017 12.7933 6.226C11.8991 5.33167 10.8078 4.8845 9.5193 4.8845C8.2308 4.8845 7.13947 5.33167 6.2453 6.226C5.35097 7.12017 4.9038 8.2115 4.9038 9.5C4.9038 10.7885 5.35097 11.8798 6.2453 12.774C7.13947 13.6683 8.2308 14.1155 9.5193 14.1155Z" fill="#B4BBC7"/>
</g>
<defs>
<clipPath id="clip0_90_353">
<rect width="24" height="24" fill="white"/>
</clipPath>
</defs>
</svg>
